# xmcd
#
# Track frame offsets:
# 150
# 17425
# 35775
# 55625
# 75000
# 93975
# 111225
# 123125
# 138488
# 159113
# 176175
# 193150
# 208400
# 225575
#
# Disc length: 3191 seconds
#
#
# Revision: 0
# Processed by: cddbd v1.5.2PL0 Copyright (c) Steve Scherf et al.
# Submitted via: FreeRIP 2.951 
#
DISCID=af0c750e
DTITLE=Kenny Rogers - Kenny Rogers
DYEAR=1993
DGENRE=Country
TTITLE0=We've Got Tonight
TTITLE1=Lady
TTITLE2=Coward Of The County
TTITLE3=What About Me
TTITLE4=She Believes In Me
TTITLE5=Don't Fall In Love With A Dreamer
TTITLE6=Reuben James
TTITLE7=Gambler
TTITLE8=Throughout The Years
TTITLE9=You Decorated My Life
TTITLE10=Love Will Turn Around
TTITLE11=Love The World Away
TTITLE12=Island In The Stream
TTITLE13=Every Time Two Fools collide
EXTD=Fido Records
EXTT0=
EXTT1=
EXTT2=
EXTT3=
EXTT4=
EXTT5=
EXTT6=
EXTT7=
EXTT8=
EXTT9=
EXTT10=
EXTT11=
EXTT12=
EXTT13=
PLAYORDER=
